<!DOCTYPE svg PUBLIC "-//W3C//DTD SVG 20010904//EN" "http://www.w3.org/TR/2001/REC-SVG-20010904/DTD/svg10.dtd">
<svg version="1.0" xmlns="http://www.w3.org/2000/svg" width="246px" height="240px" viewBox="0 0 2460 2400" preserveAspectRatio="xMidYMid meet">
<g id="layer101" fill="#007742" stroke="none">
 <path d="M0 1200 l0 -1200 1230 0 1230 0 0 1200 0 1200 -1230 0 -1230 0 0 -1200z"/>
 </g>
<g id="layer102" fill="#178557" stroke="none">
 <path d="M0 1200 l0 -1200 1230 0 1230 0 0 1200 0 1200 -1230 0 -1230 0 0 -1200z m1378 679 c78 -21 237 -96 172 -82 -42 10 -198 10 -260 1 -65 -9 -152 -44 -212 -85 -47 -32 -73 -56 -162 -153 -19 -21 -88 -144 -85 -152 0 -2 -5 -16 -12 -33 -17 -43 -24 -241 -10 -306 11 -50 28 -94 69 -179 9 -19 32 -49 50 -67 17 -18 32 -36 32 -40 0 -15 118 -103 176 -131 74 -37 117 -51 174 -57 77 -8 194 -6 229 5 57 16 46 5 -32 -34 -351 -173 -781 -20 -947 337 -44 95 -60 170 -62 292 -1 123 21 224 69 318 15 29 26 55 25 58 0 4 10 17 23 29 14 13 25 26 25 30 0 9 120 130 129 130 4 0 16 8 27 18 60 52 216 112 319 122 93 9 174 2 263 -21z"/>
 </g>
<g id="layer103" fill="#b19c75" stroke="none">
 <path d="M0 1200 l0 -1200 1230 0 1230 0 0 1200 0 1200 -1230 0 -1230 0 0 -1200z m1415 675 c74 -24 191 -82 183 -91 -2 -2 -42 3 -88 12 -298 52 -591 -129 -683 -421 -31 -98 -31 -252 0 -350 94 -297 400 -483 692 -421 41 9 76 14 78 12 6 -6 -57 -43 -118 -70 -96 -42 -199 -59 -318 -53 -172 9 -315 68 -435 178 -158 145 -236 320 -236 529 0 195 68 359 205 495 113 113 236 179 379 205 90 16 251 4 341 -25z"/>
 </g>
<g id="layer104" fill="#ffffff" stroke="none">
 <path d="M0 1200 l0 -1200 1230 0 1230 0 0 1200 0 1200 -1230 0 -1230 0 0 -1200z m1422 673 c83 -29 184 -80 175 -89 -2 -2 -28 1 -57 7 -88 19 -262 7 -342 -24 -178 -69 -315 -213 -371 -392 -31 -98 -31 -252 0 -350 101 -320 429 -498 752 -409 41 12 14 -14 -48 -45 -104 -53 -178 -72 -297 -78 -140 -7 -231 12 -353 73 -160 80 -289 224 -353 396 -27 72 -32 99 -36 209 -4 107 -1 137 17 204 71 257 268 451 526 517 110 28 274 20 387 -19z m164 -350 c26 -37 67 -91 91 -120 l43 -53 -30 0 c-50 0 -85 25 -136 97 -34 48 -50 63 -52 51 -6 -33 -19 -18 -26 29 -7 50 1 63 41 63 15 0 35 -19 69 -67z m359 -103 c16 -31 16 -32 -30 -92 -25 -33 -64 -89 -87 -124 -34 -52 -44 -61 -51 -48 -19 34 -1 99 47 164 49 68 55 83 31 74 -8 -4 -15 -2 -15 3 0 7 67 47 87 52 1 1 10 -13 18 -29z m-451 -94 c-6 -26 -66 -86 -86 -86 -6 0 -37 -10 -70 -21 -50 -19 -56 -24 -46 -37 11 -13 7 -14 -37 -8 -28 5 -51 9 -53 11 -2 1 1 18 5 36 9 31 14 34 138 76 72 25 134 49 139 54 14 13 18 5 10 -25z m0 -256 c9 -24 16 -69 16 -110 0 -58 3 -68 15 -64 8 4 15 3 15 0 0 -10 -40 -86 -45 -86 -10 0 -55 24 -56 29 0 3 -2 65 -5 136 -2 72 -7 141 -10 153 l-5 24 29 -21 c17 -11 37 -39 46 -61z m306 -40 c36 -11 66 -20 68 -20 1 0 2 7 2 16 0 12 10 7 41 -16 l40 -33 -22 -23 c-12 -13 -30 -24 -38 -24 -9 0 -72 18 -139 40 -68 22 -126 39 -130 39 -24 -4 -23 4 3 21 38 25 92 25 175 0z"/>
 </g>

</svg>